<svg xmlns="http://www.w3.org/2000/svg" viewBox="-552 -8890.399 115.696 39.32"><defs><style>.a{fill:#ff8035;}.b{fill:#383838;}</style></defs><g transform="translate(-552 -8890.343)"><path class="a" d="M0,15.149a2.436,2.436,0,0,1,1.6-1.263c.168-.028.337-.337.393-.561a19.391,19.391,0,0,1,4.8-7.8A18.891,18.891,0,0,1,18.417.044,17.9,17.9,0,0,1,31.472,3.75,17.55,17.55,0,0,1,38.35,15.289a19.983,19.983,0,0,1,.168,2.892,19.311,19.311,0,0,0-2.106-6.71,17.2,17.2,0,0,0-13.5-9.321A16.537,16.537,0,0,0,8.731,7.119,15.614,15.614,0,0,0,4.941,13.3c-.056.168-.084.337-.14.533a2.342,2.342,0,0,0,.337.225,1.971,1.971,0,0,1,1.151,1.825q.042,2.864,0,5.727a2,2,0,0,1-1.544,1.937,4.338,4.338,0,0,0,.168.646A16.528,16.528,0,0,0,16.424,34.857a1.167,1.167,0,0,0,1.123-.14,2.234,2.234,0,0,1,1.067-.281q1.727-.042,3.453,0a1.828,1.828,0,0,1,1.993,1.741,7.2,7.2,0,0,1,0,1.348,2.236,2.236,0,0,1-1.291,1.741H17.94c-.253-.2-.618-.309-.786-.561a2.041,2.041,0,0,0-1.46-.814A19.082,19.082,0,0,1,4.464,30,18.674,18.674,0,0,1,1.8,24.161c-.084-.281-.084-.618-.449-.73A2.359,2.359,0,0,1,0,22.083Z" transform="translate(0 0)"/><path class="b" d="M380.041,94.339c-.309.056-.646.112-.955.14h-7.1a6.108,6.108,0,0,0,.2,2.864,5.148,5.148,0,0,0,.786,1.684,3.681,3.681,0,0,0,3.734,1.235,5.237,5.237,0,0,0,2.3-.87,1.1,1.1,0,0,1,.393-.225.58.58,0,0,1,.393.028.478.478,0,0,1,0,.393,5.454,5.454,0,0,1-.646.926,6.1,6.1,0,0,1-4.155,2.049,9.5,9.5,0,0,1-2.527-.14A5.227,5.227,0,0,1,368.5,99.5a7.875,7.875,0,0,1,.505-8.282,6.3,6.3,0,0,1,6.626-2.583,5.38,5.38,0,0,1,4.155,3.846c.084.253.2.505.281.758C380.041,93.637,380.041,94,380.041,94.339Zm-8.114-.7c1.319-.084,2.527-.112,3.762-.225.393-.028.59-.337.59-.758a4.427,4.427,0,0,0-.618-2.3,1.545,1.545,0,0,0-2.892.056A7.838,7.838,0,0,0,371.927,93.637Z" transform="translate(-264.373 -63.693)"/><path class="b" d="M259.12,88.256V99.514a1.8,1.8,0,0,0,1.46,1.993,1.588,1.588,0,0,0,2.106-1.544c.028-.955,0-1.909,0-2.864V91.4c-.618-.2-1.123-.365-1.769-.533.477-.533,1.067-.477,1.516-.674s.926-.337,1.4-.561c.477-.2.955-.449,1.432-.674.449-.225.87-.477,1.376-.758.056.309.084.477.112.674.028.168.028.337.056.646a6.379,6.379,0,0,1,4.015-1.151,4.382,4.382,0,0,1,3.706,1.713,4.11,4.11,0,0,0,.365-.253,6.222,6.222,0,0,1,5.587-1.291c2.021.365,3.06,1.713,3.116,3.93.056,2.246.028,4.52.028,6.766,0,.309,0,.618.028.9a1.526,1.526,0,0,0,1.151,1.4,4.677,4.677,0,0,1,.561.225c-.112.421-.421.365-.674.365H278.6a3.349,3.349,0,0,1-.73-.14v-.2a2.832,2.832,0,0,1,.505-.253,1.465,1.465,0,0,0,1.179-1.544c0-2.611-.028-5.222-.056-7.833a3.4,3.4,0,0,0-.2-1.039,2.038,2.038,0,0,0-2.19-1.46,1.839,1.839,0,0,0-1.825,1.741,7.552,7.552,0,0,0-.084,1.123c0,2.246.028,4.52-.028,6.766-.028,1.151.253,2.049,1.516,2.3.084.028.14.112.337.281a3.847,3.847,0,0,1-.674.2h-6.317a2.251,2.251,0,0,1-.59-.14c0-.056-.028-.14-.028-.2a4.577,4.577,0,0,1,.533-.253,1.447,1.447,0,0,0,1.151-1.572c0-2.5,0-5.025-.028-7.524a4.033,4.033,0,0,0-.281-1.4,2,2,0,0,0-2.19-1.348,1.829,1.829,0,0,0-1.8,1.713,6.483,6.483,0,0,0-.084,1.039v7.075c0,1.348.2,1.6,1.46,2.106a2.238,2.238,0,0,1,.337.225,5.19,5.19,0,0,1-.449.281,1.662,1.662,0,0,1-.533.028H253.927c-.309,0-.59-.084-.9-.112,0-.084-.028-.14-.028-.225a4.944,4.944,0,0,1,.561-.253,1.753,1.753,0,0,0,1.4-1.965V92.018c0-.2-.028-.393-.028-.646-.533-.168-1.067-.337-1.741-.533.225-.2.309-.309.421-.337a20.439,20.439,0,0,0,5.025-2.162A2.5,2.5,0,0,1,259.12,88.256Z" transform="translate(-181.971 -63.478)"/><path class="a" d="M148.3,60.714c.618-.2,1.263-.393,1.881-.618a14.516,14.516,0,0,0,1.8-.786c.618-.281,1.179-.618,1.909-1.011.028.365.084.646.084.926V77.672A2.021,2.021,0,0,0,155.6,80.03c.14.056.281.14.449.225v.168a3.349,3.349,0,0,1-.73.14h-14.29c-.309,0-.59-.084-.9-.112a.618.618,0,0,0-.028-.225c.225-.084.421-.168.646-.253a1.952,1.952,0,0,0,1.432-2.049V62.2c0-.786,0-.786-.786-1.011a7.253,7.253,0,0,1-.73-.225c-.028,0-.056-.084-.112-.168.084-.056.14-.2.225-.225a20.438,20.438,0,0,0,5.025-2.162c.028-.028.084,0,.253-.028.028.281.084.561.084.842V77.9a1.991,1.991,0,0,0,1.151,1.965,1.914,1.914,0,0,0,2.611-1.123,3.7,3.7,0,0,0,.112-.955v-15.5c0-.87,0-.842-.9-1.095-.281-.084-.533-.168-.814-.253Z" transform="translate(-100.767 -41.972)"/><path class="b" d="M212.783,62.617c-.14-.225-.309-.421-.421-.646a6.05,6.05,0,0,0-2.106-2.414,4.143,4.143,0,0,0-2.414-.73,1.1,1.1,0,0,0-1.263,1.179,4.132,4.132,0,0,0,0,.59V77.159a2.213,2.213,0,0,0,1.937,2.527c.2.056.393.14.618.2,0,.056.028.14.028.2a2.166,2.166,0,0,1-.533.225c-.421.028-.842.028-1.291.028h-7.384c-.309,0-.646.112-.926-.309a1.706,1.706,0,0,1,.393-.281c.2-.084.393-.084.59-.168a2.05,2.05,0,0,0,1.572-2.19v-8.2c0-2.864-.028-5.727,0-8.591.028-1.684-.73-1.993-2.106-1.684a5.488,5.488,0,0,0-3.706,3.06c-.112.225-.281.421-.505.814a2.851,2.851,0,0,1-.2-.646c0-1.207-.028-2.414,0-3.622,0-.533.084-.59.618-.618h16.789c.365,0,.561.14.561.533V62.28a1.513,1.513,0,0,1-.084.281A.4.4,0,0,0,212.783,62.617Z" transform="translate(-140.294 -41.684)"/><path class="a" d="M105.728,101.414c-.225.955-1.095,1.488-2.555,1.6a2.879,2.879,0,0,1-2.723-1.348c-.281.2-.477.393-.7.533a5.465,5.465,0,0,1-5.9,0,3.73,3.73,0,0,1,.421-6.4,9.041,9.041,0,0,1,1.937-.561c.73-.168,1.488-.253,2.19-.477a2.761,2.761,0,0,0,1.516-4.1,1.519,1.519,0,0,0-1.46-.87c-.646.028-.955.477-1.179,1.011-.168.365-.253.758-.393,1.123a2.025,2.025,0,0,1-2.134,1.32,1.52,1.52,0,0,1-1.376-1.095,1.908,1.908,0,0,1,.646-2.106,4.393,4.393,0,0,1,2.667-.926,19.317,19.317,0,0,1,3.818.14,4.153,4.153,0,0,1,3.846,4.576c0,1.628-.112,3.257-.168,4.885a16.293,16.293,0,0,0,0,1.656c.028.842.281,1.067,1.123,1.039A.711.711,0,0,1,105.728,101.414ZM100.2,94.62a39.033,39.033,0,0,0-2.92,2.7A2.77,2.77,0,0,0,96.8,100.4a1.814,1.814,0,0,0,1.993,1.123,1.505,1.505,0,0,0,1.4-1.376C100.254,98.382,100.2,96.557,100.2,94.62Z" transform="translate(-66.339 -64.114)"/><path class="b" d="M48.663,36.9c1.095,2.414,2.19,4.8,3.313,7.243.421-.14.758-.253,1.235-.393a12.135,12.135,0,0,0-.814,1.572,13.2,13.2,0,0,0-.421,1.741c-.365-.225-.674-.393-1.039-.618-3.032,2.021-6.092,4.071-9.152,6.12a.387.387,0,0,1-.084-.112c.14-.112.253-.253.393-.365,2.471-2.134,4.941-4.239,7.44-6.345a.971.971,0,0,0,.393-1.095c-.477-2.471-.926-4.969-1.376-7.468v-.225A.213.213,0,0,1,48.663,36.9Zm3.144,8.282a.666.666,0,0,0-.646-.7.716.716,0,0,0-.646.618.642.642,0,0,0,.646.674A.625.625,0,0,0,51.807,45.182Z" transform="translate(-29.993 -26.58)"/><path class="b" d="M260.694,72.2a2.351,2.351,0,0,1,2.443,2.33,2.439,2.439,0,0,1-2.5,2.443,2.351,2.351,0,0,1-2.443-2.33A2.422,2.422,0,0,1,260.694,72.2Z" transform="translate(-185.706 -51.97)"/></g></svg>