<?xml version="1.0" standalone="no"?>
<!DOCTYPE svg PUBLIC "-//W3C//DTD SVG 20010904//EN"
 "http://www.w3.org/TR/2001/REC-SVG-20010904/DTD/svg10.dtd">
<svg version="1.0" xmlns="http://www.w3.org/2000/svg"
 width="350.000000pt" height="350.000000pt" viewBox="0 0 350.000000 350.000000"
 preserveAspectRatio="xMidYMid meet">
<metadata>
Created by potrace 1.11, written by Peter Selinger 2001-2013
</metadata>
<g transform="translate(0.000000,350.000000) scale(0.100000,-0.100000)"
fill="#000000" stroke="none">
<path d="M1599 3485 c-2 -2 -32 -6 -66 -9 -167 -15 -393 -84 -576 -176 -392
-197 -696 -537 -850 -950 -80 -215 -108 -386 -102 -630 4 -183 5 -188 35 -338
106 -516 477 -985 955 -1207 133 -62 243 -101 331 -119 11 -3 39 -9 64 -14
160 -36 374 -47 545 -27 128 14 331 61 405 93 l39 17 -97 175 c-53 96 -100
180 -105 187 -5 9 -24 7 -75 -8 -233 -67 -509 -63 -749 11 l-73 22 16 36 c9
21 20 48 26 62 5 14 15 38 23 55 17 37 93 218 105 250 9 23 10 23 54 10 77
-23 127 -30 236 -30 129 0 176 7 260 35 234 80 423 248 524 466 l27 59 234 0
c128 0 236 -3 240 -7 8 -8 -55 -195 -90 -268 -71 -147 -155 -263 -271 -377
-72 -71 -83 -89 -65 -109 5 -5 32 -52 61 -104 29 -52 64 -115 78 -140 14 -25
32 -57 39 -73 l15 -27 26 21 c193 149 374 373 491 606 47 93 121 293 136 368
35 171 44 268 40 430 -3 94 -7 184 -9 200 -5 29 -30 156 -40 201 -15 71 -85
255 -132 349 -50 98 -144 252 -177 288 -7 7 -36 40 -65 74 -97 114 -218 221
-352 312 -74 50 -75 50 -86 28 -20 -38 -154 -365 -154 -375 0 -6 6 -12 13 -15
25 -9 143 -112 216 -186 86 -89 184 -233 236 -346 40 -86 98 -255 91 -262 -3
-3 -110 -6 -239 -7 l-235 -1 -28 60 c-110 234 -305 405 -539 473 -102 30 -149
36 -258 34 -124 -2 -207 -21 -338 -76 -16 -7 -23 2 -107 154 -14 25 -44 79
-67 120 -75 134 -75 117 0 151 123 55 230 84 386 105 71 9 219 11 274 3 28 -4
68 -10 91 -13 23 -3 47 -6 54 -8 15 -3 183 382 172 394 -6 5 -77 21 -202 44
-38 6 -386 15 -391 9z m-500 -670 c15 -28 51 -93 80 -145 29 -52 66 -118 81
-146 l29 -52 -47 -33 c-62 -45 -155 -141 -202 -209 -99 -146 -141 -274 -146
-450 -6 -257 77 -466 254 -638 49 -47 144 -119 195 -147 10 -5 19 -14 19 -18
0 -5 -39 -102 -87 -217 l-87 -209 -57 31 c-596 320 -856 1033 -605 1657 66
166 169 319 297 444 90 87 222 189 240 184 5 -2 21 -25 36 -52z"/>
</g>
</svg>
