<svg xmlns="http://www.w3.org/2000/svg" viewBox="1442 -8891.142 132.969 42.009"><defs><style>.a{fill:#272727;}.b{fill:#ff8035;}</style></defs><g transform="translate(1442 -8891.542)"><g transform="translate(48.791 2.985)"><path class="a" d="M11.143-14.954a4.39,4.39,0,0,1-.677,2.217,4.086,4.086,0,0,1-1.738,1.49,5.915,5.915,0,0,1-2.555.528A4.721,4.721,0,0,1,2.44-12.262a6.375,6.375,0,0,1-1.362-4.359v-.594a7.277,7.277,0,0,1,.615-3.092,4.661,4.661,0,0,1,1.771-2.048,4.941,4.941,0,0,1,2.675-.722,5.182,5.182,0,0,1,3.517,1.152,4.551,4.551,0,0,1,1.511,3.175H8.278a2.153,2.153,0,0,0-.553-1.577,2.275,2.275,0,0,0-1.585-.479A1.731,1.731,0,0,0,4.554-20a5.2,5.2,0,0,0-.528,2.584v.85a5.754,5.754,0,0,0,.483,2.749,1.768,1.768,0,0,0,1.664.826A2.225,2.225,0,0,0,7.7-13.459a2,2,0,0,0,.561-1.494Zm8.2,1.825H15.37l-.694,2.246h-3.1L15.989-22.9h2.725l4.442,12.021H20.043Zm-3.278-2.238h2.584l-1.3-4.17Zm10.866,2.254h5.045v2.229H24.031V-22.9h2.9Zm9.165,0h5.045v2.229H33.2V-22.9h2.9Zm19.419-7.555H51.905v9.784h-2.9v-9.784H45.465V-22.9H55.513Zm4.31,9.784h-2.89V-22.9h2.89ZM65.644-22.9l2.683,8.364L71-22.9h3.815v12.021H71.911V-13.69l.281-5.747-2.906,8.554H67.37l-2.915-8.562.281,5.755v2.807h-2.9V-22.9Zm18.47,6.919H79.556v2.873h5.383v2.229H76.658V-22.9h8.3v2.238h-5.4v2.535h4.558Z" transform="translate(-1.078 23.078)"/></g><g transform="translate(48.45 20.854)"><path class="a" d="M16.911-32.927H11.16v15.593H6.542V-32.927H.9v-3.566H16.911Zm17.8,6.408a11.3,11.3,0,0,1-1.04,4.961,7.683,7.683,0,0,1-2.954,3.323,8.226,8.226,0,0,1-4.362,1.165A8.342,8.342,0,0,1,22.016-18.2a7.67,7.67,0,0,1-2.954-3.217,10.973,10.973,0,0,1-1.112-4.8v-1.079a11.348,11.348,0,0,1,1.033-4.967,7.664,7.664,0,0,1,2.961-3.323,8.283,8.283,0,0,1,4.388-1.171A8.2,8.2,0,0,1,30.675-35.6a7.8,7.8,0,0,1,2.967,3.3,11.022,11.022,0,0,1,1.072,4.9Zm-4.7-.8a8.057,8.057,0,0,0-.954-4.336,3.06,3.06,0,0,0-2.73-1.48q-3.474,0-3.671,5.211l-.013,1.408a8.286,8.286,0,0,0,.934,4.329,3.055,3.055,0,0,0,2.777,1.513,3.019,3.019,0,0,0,2.7-1.487,8.06,8.06,0,0,0,.961-4.277ZM43.61-24.466l-1.895,2.079v5.053H37.1V-36.493h4.619v8.448l1.605-2.434,4.132-6.014h5.711l-6.474,8.474,6.474,10.685H47.689Zm22.607-1H58.953v4.579h8.58v3.553h-13.2V-36.493H67.559v3.566H58.953v4.04h7.264Zm19.2,8.132H80.823l-6.79-11.922v11.922H69.414V-36.493h4.619L80.81-24.571V-36.493h4.606Z" transform="translate(-0.896 36.756)"/></g><g transform="translate(0 0.4)"><path class="b" d="M31.7,3.306,29.7,8.115a16.085,16.085,0,0,1,6.817,9.776H30.7a10.311,10.311,0,0,0-9.67-6.817,9.867,9.867,0,0,0-4.492,1.057L13.845,7.269a15.746,15.746,0,0,1,7.239-1.744,14.874,14.874,0,0,1,3.435.37l2.008-4.809A20.491,20.491,0,0,0,21.084.4a21,21,0,1,0-.053,42.009,21.685,21.685,0,0,0,7.662-1.427l-2.536-4.544a16.047,16.047,0,0,1-10.727-.159L17.6,31.154a10.3,10.3,0,0,0,13.1-6.235h5.813a15.892,15.892,0,0,1-5.39,8.772l2.536,4.544A21.022,21.022,0,0,0,31.7,3.306ZM14.32,35.8h0A15.912,15.912,0,0,1,12.841,7.8l2.695,4.861a10.306,10.306,0,0,0,.951,17.966Z" transform="translate(0 -0.4)"/></g></g></svg>